<svg height='100px' width='100px'  fill="#ffffff" xmlns="http://www.w3.org/2000/svg" viewBox="0 0 128 128" x="0px" y="0px"><title>moisturized, skincare, beauty, treatment, product, makeup</title><path d="M122.567,79.9a.02.02,0,0,1-.016-.02V75.523a4.516,4.516,0,0,0-3.9-4.46.02.02,0,0,1-.016-.012c-2.572-5.777-5.475-6.5-9.106-7.391-3.743-.917-8.4-2.059-15.616-9.725a3.861,3.861,0,0,0-3.325-1.154,5.025,5.025,0,0,0-3.7,2.5c-1.284,2.29-3.541,5.276-7,6.493s-8.515,1.6-13.41,1.98c-1.733.134-3.476.269-5.169.442a.022.022,0,0,1-.018-.036C72.875,51.034,77.5,43.126,75.024,40.647L64.309,29.931C59.758,25.375,37.1,45.094,26.834,55.354S-3.141,88.275,1.412,92.828l10.715,10.716A2.47,2.47,0,0,0,14,104.29c1.6,0,4.281-1.04,9.205-4.46A161.2,161.2,0,0,0,38.2,87.644a.022.022,0,0,1,.036.016v21.574a6.131,6.131,0,0,0,6.131,6.131h76.688a6.131,6.131,0,0,0,6.131-6.131V85.812A6.115,6.115,0,0,0,122.567,79.9Zm1.615,5.939v3.644a.022.022,0,0,1-.022.022H41.254a.022.022,0,0,1-.022-.022V85.834A3.131,3.131,0,0,1,44.363,82.7h76.688A3.131,3.131,0,0,1,124.182,85.834ZM124.16,102.5H41.254a.022.022,0,0,1-.022-.022V92.522a.022.022,0,0,1,.022-.022H124.16a.022.022,0,0,1,.022.022v9.956A.022.022,0,0,1,124.16,102.5Zm-4.631-22.8H45.886a.022.022,0,0,1-.022-.022V75.545A1.545,1.545,0,0,1,47.409,74h70.6a1.545,1.545,0,0,1,1.545,1.545v4.136A.022.022,0,0,1,119.529,79.7ZM66.7,66.744c5.088-.392,10.348-.8,14.174-2.141,4.348-1.528,7.092-5.116,8.628-7.857a2.061,2.061,0,0,1,1.452-.987.826.826,0,0,1,.775.231c7.823,8.314,13.178,9.626,17.087,10.584,2.9.71,4.7,1.162,6.445,4.391a.024.024,0,0,1-.019.035H50.419a.024.024,0,0,1-.02-.035C52.167,67.863,59.538,67.3,66.7,66.744ZM28.956,57.475C46.05,40.381,59.771,31.912,62.3,32.172a.025.025,0,0,1,.014.008l8.273,8.272a.021.021,0,0,1-.007.035c-8.4,2.873-24.75,17.3-33.03,25.583S14.839,90.7,11.967,99.1a.02.02,0,0,1-.035.007L3.66,90.834a.027.027,0,0,1-.007-.014C3.394,88.277,11.861,74.57,28.956,57.475Zm-14,43.648a.371.371,0,0,1-.472-.446C15.575,96.7,24,83.867,39.671,68.191S68.161,44.1,72.15,43.006a.37.37,0,0,1,.447.472c-.895,2.684-5.441,9.754-15.94,21.347a.02.02,0,0,1-.012.006c-4.882.9-8.681,2.551-9.483,6.177a.02.02,0,0,1-.018.016,4.518,4.518,0,0,0-4.28,4.5v4.352a.02.02,0,0,1-.016.02,6.128,6.128,0,0,0-3.834,2.936l0,0C26.616,94.352,18.038,100.114,14.956,101.123Zm106.1,11.242H44.363a3.131,3.131,0,0,1-3.131-3.131v-3.712a.022.022,0,0,1,.022-.022H124.16a.022.022,0,0,1,.022.022v3.712A3.131,3.131,0,0,1,121.051,112.365Z"></path></svg>